<?xml version="1.0" encoding="utf-8"?>
<!-- Generator: Adobe Illustrator 26.4.1, SVG Export Plug-In . SVG Version: 6.00 Build 0)  -->
<svg version="1.1" id="Capa_1" xmlns="http://www.w3.org/2000/svg" xmlns:xlink="http://www.w3.org/1999/xlink" x="0px" y="0px"
	 viewBox="0 0 239.3 43.8" style="enable-background:new 0 0 239.3 43.8;" xml:space="preserve">
<style type="text/css">
	.st0{fill:#1F315A;}
	.st1{fill:#C8D400;}
</style>
<g>
	<g>
		<path class="st0" d="M0.2,0.5h6.6c2.2,0,6,0.9,6,5.5c0,3.8-2.6,4.9-3.6,5.2v0.1c1.7,0.2,4.6,1.5,4.6,5.9c0,5.7-4.5,6.3-7.4,6.3
			H0.2V0.5z M3.6,10h2.1c1.5,0,3.8-0.3,3.8-3.5c0-3.2-2.3-3.4-4.1-3.4H3.6V10z M3.6,20.8h2.6c3,0,4.5-1.7,4.5-3.9
			c0-3.8-3.5-4.2-4.9-4.2H3.6V20.8z"/>
		<path class="st0" d="M36.6,0.5h4.2l9.1,18h0.1v-18h3v23.1H49L39.7,5.1h-0.1v18.5h-3C36.6,23.6,36.6,0.5,36.6,0.5z"/>
		<path class="st0" d="M69.9,20c-0.9,0.6-2.6,1.3-4.5,1.3c-4.8,0-6.2-4.3-6.2-10c0-3.1,0.6-8.4,5-8.4c1.7,0,2.7,0.8,3.1,1.7l2.6-2.4
			c-1.3-1.3-3.1-2.1-5.7-2.1c-6.7,0-8.7,5.5-8.7,11.6c0,9.1,4.1,12.2,9.2,12.2c2.7,0,5-0.9,6-1.4L69.9,20z"/>
		<path class="st0" d="M71.1,12c0-6.3,1.9-11.8,8.9-11.8c7.1,0,9.1,5.7,9.1,11.8c0,6.3-2,11.8-9.1,11.8C73,23.9,71.1,18.2,71.1,12z
			 M80.1,21.2c4.6,0,5.3-5.5,5.3-9.2s-0.7-9.2-5.3-9.2s-5.3,5.5-5.3,9.2C74.7,15.8,75.4,21.2,80.1,21.2z"/>
		<path class="st0" d="M92.3,0.5h5.6c3.4,0,8.1,0.1,8.1,6.2c0,5.7-5,6.2-7.3,6.2h-3v10.7h-3.4V0.5z M95.6,10.1H98
			c2.4,0,4.3-0.7,4.3-3.5c0-3.5-2.6-3.5-4.3-3.5h-2.3V10.1z"/>
		<path class="st0" d="M127.2,3.1h-5.7V0.5h14.9v2.7h-5.8v20.4h-3.4V3.1z"/>
		<path class="st0" d="M173.9,12c0-6.3,1.9-12,8.9-12c7.1,0,9.1,5.7,9.1,12s-2,11.8-9.1,11.8C175.7,23.9,173.9,18.2,173.9,12z
			 M182.8,21.2c4.6,0,5.3-5.5,5.3-9.2c0-3.8-0.7-9.2-5.3-9.2c-4.6,0-5.3,5.5-5.3,9.2S178.2,21.2,182.8,21.2z"/>
		<path class="st0" d="M194.5,0.5h4.2l9.1,18.1h0.1V0.5h3v23.1h-3.9l-9.3-18.5h-0.1v18.5h-3V0.5z"/>
		<path class="st0" d="M214.4,0.5h3.4v23.1h-3.4V0.5z"/>
		<path class="st0" d="M163,12.8h4.9v7.5c-0.2,0.3-1.9,0.9-3.9,0.9c-5.3,0-5.9-5.6-5.9-9.9c0-4.2,1-8.5,5.3-8.5c1.9,0,3,0.8,3.6,1.9
			l2.6-2.3c-1.4-1.5-3.6-2.2-6-2.2c-6.5,0-9.1,4.9-9.1,11.1c0,8.9,3.7,12.7,9.7,12.7c3.8,0,6.2-1.6,6.8-2.2V10.2h-8V12.8z"/>
		<polygon class="st0" points="123.6,23.4 115.7,0.5 111.5,0.5 103.8,23.4 107.2,23.4 113.6,3.5 113.6,3.5 116.6,12.8 113.6,12.8 
			112.8,15.4 117.5,15.4 120,23.4 		"/>
		<polygon class="st0" points="34.7,23.4 26.8,0.5 22.7,0.5 14.9,23.4 18.5,23.4 24.8,3.5 24.8,3.5 27.7,12.8 24.8,12.8 24,15.4 
			28.7,15.4 31.2,23.4 		"/>
		<polygon class="st0" points="239.3,23.4 231.4,0.5 227.4,0.5 219.5,23.4 223.1,23.4 229.3,3.5 229.5,3.5 232.4,12.8 229.5,12.8 
			228.6,15.4 233.2,15.4 235.7,23.4 		"/>
		<polygon class="st0" points="154.1,23.4 146.2,0.5 142.1,0.5 134.3,23.4 137.8,23.4 144.1,3.5 144.1,3.5 147.2,12.8 144.1,12.8 
			143.3,15.4 148,15.4 150.5,23.4 		"/>
	</g>
	<g>
		<path class="st1" d="M5,37.1L5,37.1c-0.1,0.6-0.2,0.9-0.3,1.3v-0.1c-0.1-0.5-0.2-0.8-0.3-1.2l-1.9-5.8H0l3.4,10h2.4l3.4-10H6.8
			L5,37.1z"/>
		<path class="st1" d="M14.2,31.2c-1.5,0-2.7,0.5-3.5,1.3c-0.8,0.9-1.3,2.2-1.3,3.8c0,1.6,0.5,2.9,1.3,3.8c0.8,0.9,2,1.4,3.5,1.4
			s2.7-0.5,3.5-1.4c0.8-0.9,1.3-2.2,1.3-3.8c0-1.6-0.5-2.9-1.3-3.8C16.8,31.6,15.7,31.2,14.2,31.2z M14.2,39.3
			c-0.8,0-1.3-0.2-1.7-0.7c-0.3-0.5-0.6-1.3-0.6-2.3s0.2-1.9,0.6-2.3c0.3-0.5,0.9-0.7,1.7-0.7c1.5,0,2.3,1,2.3,3.1
			C16.4,38.4,15.7,39.3,14.2,39.3z"/>
		<path class="st1" d="M22.4,33.4c0.1-0.1,0.5-0.2,0.8-0.2c0.3,0,0.6,0,0.9,0.1c0.3,0.1,0.7,0.2,1.3,0.5l0.1,0.1l0.8-1.9l-0.2-0.1
			c-0.5-0.2-1-0.3-1.5-0.5c-0.5-0.1-0.9-0.2-1.5-0.2c-1,0-1.9,0.2-2.6,0.8c-0.6,0.5-0.9,1.3-0.9,2.1c0,0.5,0.1,0.9,0.2,1.3
			c0.2,0.3,0.5,0.7,0.7,0.9c0.3,0.2,0.8,0.6,1.4,0.8c0.6,0.3,1,0.5,1.3,0.7c0.2,0.1,0.3,0.2,0.5,0.3c0.1,0.1,0.1,0.2,0.1,0.5
			s-0.1,0.5-0.2,0.6c-0.2,0.1-0.6,0.2-0.9,0.2s-0.8,0-1.2-0.1c-0.3-0.2-0.9-0.5-1.5-0.7l-0.2-0.1v2.2h0.1c0.8,0.3,1.7,0.6,2.8,0.6
			c1.2,0,2.1-0.2,2.7-0.8c0.7-0.6,1-1.3,1-2.2c0-0.7-0.2-1.3-0.6-1.7c-0.3-0.5-0.9-0.9-1.9-1.4l0,0c-0.7-0.3-1-0.6-1.3-0.7
			c-0.1-0.1-0.2-0.2-0.3-0.3c-0.1-0.1-0.1-0.2-0.1-0.3C22.2,33.8,22.2,33.5,22.4,33.4z"/>
		<polygon class="st1" points="33.9,35.1 31.9,31.3 29.4,31.3 32.6,37.5 32.6,41.3 35.1,41.3 35.1,37.4 38.3,31.3 35.7,31.3 		"/>
		<polygon class="st1" points="44.5,31.3 42,31.3 42,41.3 48.4,41.3 48.4,39.2 44.5,39.2 		"/>
		<path class="st1" d="M53.7,31.2c-1.5,0-2.7,0.5-3.5,1.3c-0.8,0.9-1.3,2.2-1.3,3.8c0,1.6,0.5,2.9,1.3,3.8c0.8,0.9,2,1.4,3.5,1.4
			c1.5,0,2.7-0.5,3.5-1.4c0.8-0.9,1.3-2.2,1.3-3.8c0-1.6-0.5-2.9-1.3-3.8C56.5,31.6,55.2,31.2,53.7,31.2z M53.7,39.3
			c-0.8,0-1.3-0.2-1.7-0.7c-0.3-0.5-0.6-1.3-0.6-2.3s0.2-1.9,0.6-2.3c0.3-0.5,0.9-0.7,1.7-0.7c1.5,0,2.3,1,2.3,3.1
			C56.1,38.4,55.2,39.3,53.7,39.3z"/>
		<path class="st1" d="M71.6,39.2c0.5-0.8,0.6-1.7,0.6-2.9c0-1.6-0.5-2.9-1.3-3.8c-0.8-0.9-2-1.3-3.5-1.3c-1.5,0-2.7,0.5-3.5,1.3
			c-0.8,0.9-1.3,2.2-1.3,3.8c0,1.6,0.5,2.9,1.3,3.8c0.8,0.9,2,1.4,3.5,1.4h0.1l1.7,2.2h3l-2.4-2.7C70.7,40.5,71.3,39.9,71.6,39.2z
			 M65.8,34c0.3-0.5,0.9-0.7,1.7-0.7c1.5,0,2.3,1,2.3,3.1c0,2.1-0.7,3.1-2.3,3.1c-0.8,0-1.3-0.2-1.7-0.7c-0.3-0.5-0.6-1.3-0.6-2.3
			C65.2,35.3,65.3,34.5,65.8,34z"/>
		<path class="st1" d="M79.4,37.4c0,0.7-0.1,1.3-0.5,1.5c-0.2,0.3-0.7,0.5-1.3,0.5c-0.6,0-1-0.1-1.4-0.5c-0.2-0.3-0.5-0.8-0.5-1.5
			v-6h-2.3v6.4c0,1.2,0.3,2.1,1,2.8c0.7,0.7,1.7,1,3,1c0.8,0,1.6-0.1,2.2-0.5c0.6-0.3,1.2-0.7,1.5-1.3s0.5-1.2,0.5-2v-6.4h-2.3
			C79.4,31.5,79.4,37.4,79.4,37.4z"/>
		<polygon class="st1" points="83.6,41.3 89.5,41.3 89.5,39.2 85.9,39.2 85.9,37.1 89.3,37.1 89.3,35.2 85.9,35.2 85.9,33.3 
			89.5,33.3 89.5,31.3 83.6,31.3 		"/>
		<path class="st1" d="M102.6,39.2c0.5-0.8,0.6-1.7,0.6-2.9c0-1.6-0.5-2.9-1.3-3.8c-0.8-0.9-2-1.3-3.5-1.3s-2.7,0.5-3.5,1.3
			c-0.8,0.9-1.3,2.2-1.3,3.8c0,1.6,0.5,2.9,1.3,3.8c0.8,0.9,2,1.4,3.5,1.4h0.1l1.7,2.2h3l-2.4-2.7C101.7,40.5,102.1,39.9,102.6,39.2
			z M96.7,34c0.3-0.5,0.9-0.7,1.7-0.7c1.5,0,2.3,1,2.3,3.1c0,2.1-0.7,3.1-2.3,3.1c-0.8,0-1.3-0.2-1.7-0.7c-0.3-0.5-0.6-1.3-0.6-2.3
			C96.1,35.3,96.3,34.5,96.7,34z"/>
		<path class="st1" d="M110.4,37.4c0,0.7-0.1,1.3-0.5,1.5c-0.2,0.3-0.7,0.5-1.3,0.5c-0.6,0-1-0.1-1.4-0.5c-0.2-0.3-0.5-0.8-0.5-1.5
			v-6h-2.3v6.4c0,1.2,0.3,2.1,1,2.8c0.7,0.7,1.7,1,3,1c0.8,0,1.6-0.1,2.2-0.5c0.6-0.3,1.2-0.7,1.5-1.3c0.3-0.6,0.5-1.2,0.5-2v-6.4
			h-2.3C110.4,31.5,110.4,37.4,110.4,37.4z"/>
		<polygon class="st1" points="114.6,41.3 120.4,41.3 120.4,39.2 116.9,39.2 116.9,37.1 120.1,37.1 120.1,35.2 116.9,35.2 
			116.9,33.3 120.4,33.3 120.4,31.3 114.6,31.3 		"/>
		<path class="st1" d="M127.1,37c0.5-0.2,0.9-0.6,1.2-1c0.3-0.5,0.5-1,0.5-1.6c0-1-0.3-1.7-1-2.3c-0.7-0.5-1.6-0.7-3-0.7h-3v10h2.4
			v-3.7h0.8l2.3,3.7h2.7l-0.2-0.2C129.4,40.4,128.5,39.1,127.1,37z M124.2,33.3h0.5c0.6,0,1,0.1,1.4,0.2c0.2,0.1,0.3,0.5,0.3,0.8
			c0,0.5-0.1,0.7-0.3,0.9s-0.7,0.3-1.4,0.3h-0.5V33.3z"/>
		<path class="st1" d="M133.6,30.9c0.3-0.2,0.7-0.6,1.3-1c0.6-0.5,0.9-0.8,1.2-1l0,0v-0.3h-2.3v0.1c-0.2,0.5-0.8,1-1.5,2l0,0V31
			L133.6,30.9L133.6,30.9z"/>
		<polygon class="st1" points="130.5,41.3 136.4,41.3 136.4,39.2 132.8,39.2 132.8,37.1 136.1,37.1 136.1,35.2 132.8,35.2 
			132.8,33.3 136.4,33.3 136.4,31.3 130.5,31.3 		"/>
		<path class="st1" d="M141.4,35.4c-0.7-0.3-1-0.6-1.3-0.7c-0.1-0.1-0.2-0.2-0.3-0.3c-0.1-0.1-0.1-0.2-0.1-0.3
			c0-0.2,0.1-0.5,0.2-0.6c0.1-0.1,0.5-0.2,0.8-0.2c0.3,0,0.6,0,0.9,0.1c0.3,0.1,0.7,0.2,1.3,0.5l0.1,0.1l0.8-1.9l-0.1-0.1
			c-0.5-0.2-1-0.3-1.5-0.5c-0.5-0.1-0.9-0.2-1.5-0.2c-1,0-1.9,0.2-2.6,0.8c-0.6,0.5-0.9,1.3-0.9,2.1c0,0.5,0.1,0.9,0.2,1.3
			c0.2,0.3,0.5,0.7,0.7,0.9c0.3,0.2,0.8,0.6,1.4,0.8c0.6,0.3,1,0.5,1.3,0.7c0.2,0.1,0.3,0.2,0.5,0.3c0.1,0.1,0.1,0.2,0.1,0.5
			s-0.1,0.5-0.2,0.6c-0.2,0.1-0.6,0.2-0.9,0.2s-0.8,0-1.2-0.1c-0.5-0.1-0.9-0.3-1.6-0.6l-0.2-0.1v2.2h0.1c0.8,0.3,1.7,0.6,2.8,0.6
			c1.2,0,2.1-0.2,2.7-0.8c0.7-0.6,1-1.3,1-2.2c0-0.7-0.2-1.3-0.6-1.7C142.9,36.3,142.3,35.9,141.4,35.4z"/>
	</g>
</g>
</svg>
