<?xml version="1.0" encoding="utf-8"?>
<!-- Generator: Adobe Illustrator 23.0.3, SVG Export Plug-In . SVG Version: 6.00 Build 0)  -->
<svg version="1.1" id="Capa_1" xmlns="http://www.w3.org/2000/svg" xmlns:xlink="http://www.w3.org/1999/xlink" x="0px" y="0px"
	 viewBox="0 0 250 50" style="enable-background:new 0 0 250 50;" xml:space="preserve">
<style type="text/css">
	.st0{fill:#ED3137;}
</style>
<g>
	<g>
		<path class="st0" d="M142.88,25.39c-0.26-12.05-11.09-17.35-18.48-20.09c0,0,11.69,1.34,12.7,1.61
			C138.1,7.18,147.06,13.39,142.88,25.39z"/>
	</g>
	<g>
		<path class="st0" d="M155.83,38.69V16.73h9.52c6.86,0,10.29,3.46,10.29,10.38c0,7.72-3.43,11.58-10.29,11.58H155.83z
			 M164.74,35.16c4.56,0,6.83-2.68,6.83-8.05c0-4.57-2.28-6.85-6.83-6.85h-4.84v14.9H164.74z"/>
		<path class="st0" d="M183.55,16.73v21.96h-4.07V16.73H183.55z"/>
		<path class="st0" d="M188.16,38.69V16.73h4.07l12.21,15.7v-15.7h3.92v21.96h-4.07l-12.21-16.04v16.04H188.16z"/>
		<g>
			<path class="st0" d="M222.61,38.77c-6.09,0-11.04-4.95-11.04-11.05c0-6.09,4.95-11.05,11.04-11.05c6.09,0,11.05,4.96,11.05,11.05
				C233.66,33.82,228.7,38.77,222.61,38.77z M222.61,20.23c-4.13,0-7.49,3.36-7.49,7.49c0,4.13,3.36,7.49,7.49,7.49
				c4.13,0,7.49-3.36,7.49-7.49C230.11,23.6,226.74,20.23,222.61,20.23z"/>
		</g>
	</g>
	<g>
		<path class="st0" d="M34.33,29.7c-0.92-0.56-2.32-0.84-4.2-0.84h-4.29v7.08h4.5c1.77,0,3.11-0.29,4.02-0.88
			c0.9-0.59,1.36-1.51,1.36-2.78C35.72,31.13,35.26,30.27,34.33,29.7z"/>
		<path class="st0" d="M33.8,25.17c0.82-0.48,1.22-1.31,1.22-2.47c0-1.05-0.44-1.81-1.32-2.28c-0.88-0.47-2.28-0.7-4.19-0.7h-3.67
			v6.18h4.08C31.69,25.9,32.99,25.65,33.8,25.17z"/>
		<path class="st0" d="M242.09,45.3l-0.01-1.28c0-0.21-0.19-20.82-0.19-25.26c0-5.44-3.43-8.69-9.17-8.69h-88.19l1.01,1.87
			c1.65,3.07,2.49,6.4,2.49,9.9c0,9.15-5.9,16.95-14.1,19.79c4.12-3.17,6.73-8.11,6.73-13.75c0-9.8-7.97-17.77-17.77-17.77H10.78
			v27.7c0,4.84,2.93,7.51,8.26,7.51L242.09,45.3z M150.56,21.84c0-3.23-0.64-6.32-1.89-9.24h84.06c4.34,0,6.64,2.13,6.64,6.16
			c0,3.8,0.14,19.41,0.18,24.01H137.69C145.32,38.89,150.56,30.97,150.56,21.84z M37.75,37.31c-1.63,1.14-3.89,1.71-6.78,1.71h-9.36
			V16.66h7.69c3.57,0,6.15,0.45,7.74,1.35c1.59,0.9,2.38,2.31,2.38,4.25c0,1.31-0.39,2.39-1.17,3.26c-0.78,0.87-1.9,1.41-3.37,1.64
			v0.15c1.82,0.3,3.16,0.88,4.02,1.75c0.86,0.87,1.29,2.05,1.29,3.54C40.18,34.6,39.37,36.18,37.75,37.31z M60.35,38.69l-2.77-5.99
			h-7.03l1.4-3.53h4.56l-3.59-8.25l-7.23,17.77H41.5l9.32-21.96h4.38l9.52,21.96H60.35z M87.61,38.69h-4.07L71.33,22.65v16.04h-3.92
			V16.73h4.07l12.21,15.7v-15.7h3.92V38.69z M103.05,35.19c2.17-0.06,4.09-1.04,5.42-2.55l2.51,2.53c-1.95,2.12-4.73,3.49-7.84,3.57
			c-6.09,0.16-11.17-4.66-11.33-10.75c-0.16-6.09,4.66-11.17,10.75-11.33c3.85-0.1,7.3,1.79,9.35,4.74l-2.84,2.14
			c-1.38-2.06-3.76-3.4-6.42-3.33c-4.13,0.11-7.4,3.56-7.29,7.69C95.47,32.03,98.92,35.3,103.05,35.19z M123.92,38.77
			c-6.09,0-11.04-4.95-11.04-11.05c0-6.09,4.95-11.05,11.04-11.05c6.09,0,11.05,4.96,11.05,11.05
			C134.97,33.82,130.01,38.77,123.92,38.77z"/>
		<path class="st0" d="M123.92,20.23c-4.13,0-7.49,3.36-7.49,7.49c0,4.13,3.36,7.49,7.49,7.49c4.13,0,7.49-3.36,7.49-7.49
			C131.41,23.6,128.05,20.23,123.92,20.23z"/>
	</g>
</g>
</svg>
