<svg width="232" height="40" viewBox="0 0 232 40" fill="none" xmlns="http://www.w3.org/2000/svg">
<path d="M6.61296 15.5883C6.14326 23.038 12.4421 30.0337 22.4114 34.5688C24.6914 32.6683 26.6387 30.4225 28.197 27.8656C32.8783 20.1763 33.572 10.6021 30.9094 1.00293H18.8966C11.6613 4.47429 6.98933 9.61291 6.61296 15.5883Z" fill="#D01134"/>
<path d="M15.4844 38.8336C7.19469 33.7168 2.16494 26.4256 2.6533 18.6679C3.11676 11.3457 8.41093 5.07482 16.4609 1H0V38.8336H15.4283C15.4469 38.8274 15.4656 38.8429 15.4844 38.8336Z" fill="#D01134"/>
<path d="M37.8428 1.00293H33.3201C33.6839 2.22226 34.0074 3.45092 34.275 4.69203C36.7198 15.8621 35.0962 26.9013 29.7025 35.7664C29.4474 36.1895 27.9138 38.4291 27.6433 38.8364H37.8397V1.00293H37.8428Z" fill="#D01134"/>
<path d="M135.082 16.216H138.242V17.9082H138.286C139.334 16.4834 140.753 15.9268 142.494 15.9268C145.533 15.9268 146.852 18.0046 146.852 20.8071V28.6613H143.518V22.0141C143.518 20.4929 143.493 18.44 141.353 18.44C138.933 18.44 138.417 20.9783 138.417 22.5708V28.6582H135.079V16.216H135.082Z" fill="#171923"/>
<path d="M151.385 18.2922H148.921V15.925H151.385V13.4335L154.718 12.3945V15.9219H157.68V18.2891H154.718V24.0903C154.718 25.154 155.02 26.1463 156.286 26.1463C156.883 26.1463 157.456 26.0281 157.807 25.8103L157.906 28.3703C157.207 28.5662 156.436 28.6595 155.439 28.6595C152.824 28.6595 151.381 27.0919 151.381 24.6253V18.2922H151.385Z" fill="#171923"/>
<path d="M179.36 27.9614C178.137 28.6145 176.748 28.9536 174.955 28.9536C170.719 28.9536 168.256 26.5865 168.256 22.4993C168.256 18.9004 170.221 15.9297 174.206 15.9297C178.959 15.9297 180.306 19.0963 180.306 23.4449H171.441C171.588 25.4511 173.033 26.5896 175.106 26.5896C176.717 26.5896 178.113 26.008 179.357 25.3329V27.9614H179.36ZM177.121 21.2177C177.018 19.6468 176.271 18.2906 174.406 18.2906C172.543 18.2906 171.594 19.5504 171.444 21.2177H177.121Z" fill="#171923"/>
<path d="M186.62 10.8783H190.446C194.244 10.8783 198.777 10.7476 198.777 15.684C198.777 17.7681 197.382 19.5007 195.131 19.8025V19.8552C196.092 19.93 196.649 20.8973 197.003 21.6842L199.84 28.627H195.89L193.762 23.0841C193.255 21.7621 192.798 21.252 191.305 21.252H190.163V28.627H186.617V10.8783H186.62ZM190.163 18.4586H191.33C193.075 18.4586 195.078 18.2036 195.078 15.9889C195.078 13.8519 193.103 13.6747 191.33 13.6747H190.163V18.4586Z" fill="#171923"/>
<path d="M231.178 18.8196C230.192 18.4807 229.471 18.2879 228.289 18.2879C227.424 18.2879 226.385 18.6019 226.385 19.6657C226.385 21.6503 232 20.3936 232 24.8946C232 27.7968 229.422 28.9601 226.798 28.9601C225.568 28.9601 224.314 28.7424 223.135 28.4282L223.327 25.7655C224.339 26.2725 225.399 26.5867 226.511 26.5867C227.325 26.5867 228.628 26.2725 228.628 25.0594C228.628 22.6177 223.014 24.2881 223.014 19.784C223.014 17.0965 225.353 15.9082 227.879 15.9082C229.397 15.9082 230.386 16.1571 231.396 16.3717L231.178 18.8196Z" fill="#171923"/>
<path d="M121.433 10.8906H131.862V13.6869H124.976V18.0604H131.281V20.86H124.976V25.8429H131.912V28.6425H121.433V10.8906Z" fill="#171923"/>
<path d="M159.954 16.0152H162.887V18.8769H162.933C163.083 17.7043 164.439 15.7197 166.411 15.7197C166.728 15.7197 167.073 15.7197 167.421 15.8192V19.1194C167.127 18.9515 166.536 18.852 165.945 18.852C163.257 18.852 163.257 22.1833 163.257 23.9938V28.6191H159.954V16.0152Z" fill="#171923"/>
<path d="M203.669 10.8779H206.986L203.669 14.4239H201.66L203.669 10.8779ZM201.83 16.1285H205.076V28.6485H201.83V16.1285Z" fill="#171923"/>
<path d="M214.507 15.9268C218.317 15.9268 221.229 18.4152 221.229 22.5242C221.229 26.1044 218.762 28.9536 214.507 28.9536C210.276 28.9536 207.809 26.1044 207.809 22.5242C207.809 18.4152 210.722 15.9268 214.507 15.9268ZM214.507 26.4373C217.07 26.4373 217.742 24.2163 217.742 22.1353C217.742 20.2286 216.697 18.44 214.507 18.44C212.342 18.44 211.293 20.2784 211.293 22.1353C211.293 24.1915 211.966 26.4373 214.507 26.4373Z" fill="#171923"/>
<path d="M47.4824 11.0752H53.5574C55.797 11.0752 59.1563 11.7223 59.1563 15.5668C59.1563 17.6477 57.7628 19.1066 55.6975 19.4799V19.5297C58.0614 19.7567 59.6852 21.3618 59.6852 23.5205C59.6852 27.9405 55.7503 28.5938 53.5574 28.5938H47.4824V11.0752ZM50.9694 18.1486H52.3878C53.8559 18.1486 55.6757 17.822 55.6757 16.0147C55.6757 13.9804 53.9058 13.8311 52.3163 13.8311H50.9725V18.1486H50.9694ZM50.9694 25.8316H52.6118C54.2292 25.8316 56.1982 25.4273 56.1982 23.396C56.1982 21.116 54.3537 20.7615 52.6118 20.7615H50.9694V25.8316Z" fill="#171923"/>
<path d="M62.9701 16.8693C64.2641 16.2906 66.0029 15.9268 67.4244 15.9268C71.3343 15.9268 72.9518 17.4976 72.9518 21.1711V22.7667C72.9518 24.0203 72.9798 24.966 73.0016 25.8836C73.0233 26.8261 73.0762 27.6971 73.1477 28.6613H70.2145C70.09 28.0082 70.09 27.1868 70.0684 26.8012H70.0154C69.2441 28.1792 67.5768 28.9505 66.0589 28.9505C63.7913 28.9505 61.5735 27.6192 61.5735 25.2552C61.5735 23.392 62.4973 22.3065 63.7664 21.7C65.0354 21.0965 66.6778 20.9783 68.0745 20.9783H69.919C69.919 18.975 68.9983 18.297 67.0325 18.297C65.6141 18.297 64.1926 18.8258 63.0758 19.6532L62.9701 16.8693ZM66.8801 26.5834C67.9003 26.5834 68.6965 26.148 69.2223 25.4699C69.7697 24.7669 69.919 23.8742 69.919 22.9099H68.4757C66.9827 22.9099 64.768 23.1495 64.768 25.0593C64.7649 26.1231 65.6825 26.5834 66.8801 26.5834Z" fill="#171923"/>
<path d="M76.2394 16.216H79.4028V17.9082H79.4527C80.5009 16.4867 81.9193 15.9268 83.6612 15.9268C86.7001 15.9268 88.0159 18.0046 88.0159 20.8071V28.6613H84.6783V22.0141C84.6783 20.4962 84.6534 18.44 82.5102 18.44C80.0934 18.44 79.5707 20.9783 79.5707 22.5708V28.6582H76.2363V16.216H76.2394Z" fill="#171923"/>
<path d="M99.5812 18.8965C98.9872 18.6322 98.3401 18.4393 97.3199 18.4393C95.2513 18.4393 93.9326 20.0319 93.9326 22.3742C93.9326 24.6697 95.0523 26.4365 97.3945 26.4365C98.3401 26.4365 99.3852 26.0976 99.9607 25.8549L100.107 28.5393C99.1364 28.8285 98.1442 28.9499 96.7692 28.9499C92.5607 28.9499 90.4456 26.1691 90.4456 22.3742C90.4456 18.7753 92.6386 15.9229 96.6448 15.9229C97.9886 15.9229 98.9623 16.0691 99.8799 16.3365L99.5812 18.8965Z" fill="#171923"/>
<path d="M107.952 15.9268C111.765 15.9268 114.677 18.4152 114.677 22.5242C114.677 26.1044 112.21 28.9536 107.952 28.9536C103.721 28.9536 101.255 26.1044 101.255 22.5242C101.255 18.4121 104.169 15.9268 107.952 15.9268ZM107.952 26.4404C110.518 26.4404 111.19 24.2163 111.19 22.1386C111.19 20.2286 110.145 18.4432 107.952 18.4432C105.787 18.4432 104.742 20.2815 104.742 22.1386C104.742 24.1915 105.413 26.4404 107.952 26.4404Z" fill="#171923"/>
</svg>
