<svg width="210" height="35" viewBox="0 0 210 35" fill="none" xmlns="http://www.w3.org/2000/svg">
<path d="M50.1383 10.9784C53.5262 10.9784 55.1677 12.7003 55.1677 15.7752C55.1677 17.7365 54.6641 18.8233 52.8641 19.5658C54.6105 20.0153 55.9081 21.3671 55.9081 24.044C55.9081 27.7528 53.8165 29.3172 50.164 29.3172H43.999V10.9784H50.1383ZM49.637 18.5315C51.4103 18.5315 51.8859 17.7096 51.8859 16.0659C51.8859 14.4502 51.3042 13.6284 49.5298 13.6284H47.1479V18.5303H49.637V18.5315ZM49.6627 26.6671C51.7005 26.6671 52.4945 25.8196 52.4945 23.8852C52.4945 22.0559 51.8334 21.129 49.7151 21.129H47.1479V26.6683H49.6627V26.6671Z" fill="#E30613"/>
<path d="M57.2336 25.4227C57.2336 22.3466 59.0325 20.9959 63.2132 20.9959H64.1668V20.2266C64.1668 18.8222 63.9826 18.0552 62.4729 18.0552C61.1508 18.0552 59.8801 18.6366 58.7702 19.2728L57.658 17.1259C59.0861 16.199 60.6472 15.5628 62.7923 15.5628C65.7827 15.5628 67.1852 16.729 67.1852 19.7491V29.3172H64.8302L64.4595 28.1497C63.7192 28.9448 62.6862 29.6604 61.2313 29.6604C58.5557 29.6604 57.2336 28.1241 57.2336 25.4227ZM64.1657 26.3473V22.9571H63.69C60.8057 22.9571 60.3009 23.6984 60.3009 25.3947C60.3009 26.931 60.7509 27.461 61.8911 27.461C62.8949 27.461 63.6364 26.8773 64.1657 26.3473Z" fill="#E30613"/>
<path d="M69.9634 15.9072H72.372L72.6891 17.3653C73.7745 16.3052 74.9916 15.5628 76.632 15.5628C78.7491 15.5628 79.9943 16.5446 79.9943 19.0615V29.3172H76.9771V19.8296C76.9771 18.4264 76.5259 18.0809 75.5478 18.0809C74.5953 18.0809 73.7477 18.584 72.9806 19.2728V29.3172H69.9634V15.9072Z" fill="#E30613"/>
<path d="M82.0321 22.5871C82.0321 17.5509 83.9896 15.5628 87.4824 15.5628C89.1239 15.5628 90.3154 16.0146 91.4533 17.1014L89.8934 19.114C89.2032 18.3972 88.5958 18.0283 87.6153 18.0283C85.8969 18.0283 85.2615 18.7428 85.2615 22.5334C85.2615 26.2971 85.9237 27.1971 87.7494 27.1971C88.8068 27.1971 89.3897 26.7185 90.0776 26.0858L91.5605 28.0727C90.5801 29.0533 89.3629 29.6615 87.5629 29.6615C83.8847 29.6604 82.0321 27.4073 82.0321 22.5871Z" fill="#E30613"/>
<path d="M92.4046 22.5871C92.4046 17.524 94.5486 15.5628 98.0146 15.5628C101.483 15.5628 103.678 17.5766 103.678 22.6127C103.678 27.6454 101.509 29.6604 98.0414 29.6604C94.5742 29.6604 92.4046 27.6209 92.4046 22.5871ZM100.449 22.5871C100.449 18.7428 99.761 17.8439 98.0134 17.8439C96.2682 17.8439 95.606 18.7696 95.606 22.6127C95.606 26.401 96.295 27.3816 98.0403 27.3816C99.789 27.3816 100.449 26.3741 100.449 22.5871Z" fill="#E30613"/>
<path d="M129.964 26.0029V15.906H132.98V25.2908C132.98 26.7173 133.509 27.1434 134.488 27.1434C135.415 27.1434 136.261 26.6123 137.056 25.9258V15.906H140.047V29.316H137.639L137.322 27.831C136.261 28.8911 135.229 29.6592 133.534 29.6592C131.499 29.6604 129.964 28.4941 129.964 26.0029Z" fill="#E30613"/>
<path d="M142.933 15.9072H145.341L145.659 17.3653C146.744 16.3052 147.961 15.5628 149.603 15.5628C151.72 15.5628 152.964 16.5446 152.964 19.0615V29.3172H149.946V19.8296C149.946 18.4264 149.496 18.0809 148.516 18.0809C147.563 18.0809 146.717 18.584 145.95 19.2728V29.3172H142.934V15.9072H142.933Z" fill="#E30613"/>
<path d="M156.484 18.1871L154.736 17.8684V15.906H159.473V29.316H156.483V18.1871H156.484ZM156.034 11.959C156.034 10.871 156.879 9.99658 157.967 9.99658C159.05 9.99658 159.896 10.8453 159.896 11.959C159.896 13.0458 159.05 13.8922 157.936 13.8922C156.88 13.8922 156.034 13.0458 156.034 11.959Z" fill="#E30613"/>
<path d="M161.697 22.5871C161.697 17.5509 163.656 15.5628 167.15 15.5628C168.79 15.5628 169.982 16.0146 171.121 17.1014L169.557 19.114C168.871 18.3972 168.263 18.0283 167.284 18.0283C165.561 18.0283 164.927 18.7428 164.927 22.5334C164.927 26.2971 165.589 27.1971 167.415 27.1971C168.472 27.1971 169.057 26.7185 169.744 26.0858L171.226 28.0727C170.248 29.0533 169.03 29.6615 167.229 29.6615C163.55 29.6604 161.697 27.4073 161.697 22.5871Z" fill="#E30613"/>
<path d="M174.27 18.1871L172.524 17.8684V15.906H177.262V29.316H174.27V18.1871ZM173.819 11.959C173.819 10.871 174.667 9.99658 175.753 9.99658C176.838 9.99658 177.684 10.8453 177.684 11.959C177.684 13.0458 176.839 13.8922 175.725 13.8922C174.667 13.8922 173.819 13.0458 173.819 11.959Z" fill="#E30613"/>
<path d="M180.226 15.9072H182.633L182.977 17.3139C183.981 16.2259 185.173 15.5639 186.551 15.5639C189.25 15.5639 191.076 17.0489 191.076 22.4295C191.076 27.754 189.62 29.6627 186.551 29.6627C185.123 29.6627 183.982 29.0008 183.243 28.312V34.5425H180.226V15.9072ZM187.847 22.5871C187.847 18.7965 187.346 18.0272 185.756 18.0272C184.672 18.0272 183.957 18.5315 183.243 19.2203V26.1628C183.824 26.7173 184.646 27.1703 185.573 27.1703C187.266 27.1715 187.847 26.4535 187.847 22.5871Z" fill="#E30613"/>
<path d="M192.481 25.4227C192.481 22.3466 194.28 20.9959 198.462 20.9959H199.414V20.2266C199.414 18.8222 199.23 18.0552 197.721 18.0552C196.396 18.0552 195.127 18.6366 194.017 19.2728L192.904 17.1259C194.333 16.199 195.895 15.5628 198.038 15.5628C201.03 15.5628 202.432 16.729 202.432 19.7491V29.3172H200.078L199.705 28.1497C198.966 28.9448 197.935 29.6604 196.478 29.6604C193.803 29.6604 192.481 28.1241 192.481 25.4227ZM199.413 26.3473V22.9571H198.938C196.052 22.9571 195.549 23.6984 195.549 25.3947C195.549 26.931 196.001 27.461 197.139 27.461C198.144 27.461 198.883 26.8773 199.413 26.3473Z" fill="#E30613"/>
<path d="M205.236 25.8453V10.0246H208.254V26.2165C208.254 27.0641 208.465 27.2497 209.208 27.2497C209.42 27.2497 209.63 27.2228 209.63 27.2228L210 29.2635C209.577 29.4222 208.809 29.609 208.095 29.609C205.818 29.6078 205.236 28.4673 205.236 25.8453Z" fill="#E30613"/>
<path d="M122.679 10.9585L119.345 22.5999L116.036 10.9585H111.456V29.2961H114.58V19.8903C114.58 19.8425 114.58 19.7958 114.58 19.7491V15.5604L115.692 19.0953C115.727 19.2121 115.761 19.3265 115.797 19.4409L117.889 26.0659H120.827L121.949 22.5088L121.95 22.5147L122.785 19.8588L122.918 19.4409C122.92 19.4292 122.924 19.4187 122.927 19.4082L124.136 15.5733V29.2985H127.26V10.9585H122.679Z" fill="#E30613"/>
<path d="M27.0455 28.0117C25.1599 29.8909 22.037 29.8909 20.1515 28.0117L28.2828 19.9077C28.165 19.2617 27.8704 18.6158 27.399 18.0872L21.6835 23.7836L17.5 27.953C17.5 28.0117 17.4411 28.0117 17.4411 28.0117C15.5556 29.8909 12.4327 29.8909 10.5471 28.0117L18.6785 19.849C18.5606 19.203 18.266 18.557 17.7946 18.0285L7.8367 27.953C7.8367 28.0117 7.77778 28.0117 7.77778 28.0117C6.95286 28.8926 5.83333 29.3624 4.7138 29.4211C7.89562 32.8859 12.4916 35 17.6178 35C26.4562 35 33.7037 28.5403 35 20.0839L27.1044 27.953L27.0455 28.0117ZM12.0202 16.9128C13.1397 15.797 14.6717 15.3272 16.1448 15.5621C16.2037 15.5621 16.2626 15.5621 16.3215 15.6208C16.3805 15.6208 16.4394 15.6208 16.4394 15.6208C16.5572 15.6208 16.6751 15.6795 16.7929 15.6795C16.8519 15.6795 16.8519 15.6795 16.8519 15.6795C16.9697 15.7383 17.1465 15.7383 17.2643 15.797C17.3232 15.797 17.3232 15.8557 17.3822 15.8557C17.5 15.9144 17.5589 15.9144 17.6768 15.9732C17.7357 15.9732 17.7946 16.0319 17.7946 16.0319C17.8535 16.0906 17.9714 16.1493 18.0303 16.1493C18.0892 16.2081 18.1481 16.2081 18.1481 16.2668C18.2071 16.3255 18.3249 16.3842 18.3838 16.443C18.4428 16.5017 18.4428 16.5017 18.5017 16.5604C18.6195 16.6779 18.7374 16.7366 18.8552 16.854C19.3266 17.3238 19.6801 17.9111 19.9158 18.4983L21.5657 16.854C22.6852 15.7383 24.2172 15.2685 25.6902 15.5034C25.7492 15.5034 25.8081 15.5034 25.867 15.5621C25.9259 15.5621 25.9848 15.5621 25.9848 15.5621C26.1027 15.5621 26.2205 15.6208 26.3384 15.6208C26.3973 15.6208 26.3973 15.6208 26.4562 15.6208C26.5741 15.6795 26.7508 15.6795 26.8687 15.7383C26.9276 15.7383 26.9276 15.797 26.9865 15.797C27.1044 15.8557 27.1633 15.8557 27.2811 15.9144C27.3401 15.9144 27.399 15.9732 27.399 15.9732C27.4579 16.0319 27.5758 16.0906 27.6347 16.0906C27.6936 16.1493 27.7525 16.1493 27.7525 16.2081C27.8114 16.2668 27.9293 16.3255 27.9882 16.3842C28.0471 16.443 28.0471 16.443 28.1061 16.5017C28.2239 16.6191 28.3418 16.6779 28.4596 16.7953C28.931 17.2651 29.2845 17.8523 29.5202 18.4396L31.17 16.7953C32.1717 15.797 33.5859 15.3272 34.8822 15.3859C34.0572 6.75336 26.5741 0 17.5589 0C7.89562 0 0 7.86913 0 17.5C0 20.7886 0.883838 23.8423 2.47475 26.4262L12.0202 16.9128Z" fill="#E30613"/>
</svg>
