<svg width="512" height="512" viewBox="0 0 512 512" fill="none" xmlns="http://www.w3.org/2000/svg">
<g clip-path="url(#clip0_1_175)">
<path d="M512 0H0V512H512V0Z" fill="white"/>
<path d="M62.1592 62.1592V307.443C78.1933 279.001 131.64 188.714 159.509 188.714C187.378 188.714 194.822 223.073 194.822 223.073C194.822 223.073 302.862 387.041 449.841 391.622V62.1592H62.1592ZM300.953 222.691L258.195 249.987L301.144 207.993V222.691H300.953ZM338.556 208.184H353.254L380.551 250.942L338.556 208.184L319.85 297.517V189.478L301.144 208.184L211.811 189.478H319.85L301.144 170.771L319.85 81.4383V189.478L338.366 170.771V156.073L381.314 128.777L338.556 170.771L427.889 189.478H319.85L338.556 208.184ZM259.15 127.823L301.144 170.771H286.446C286.446 170.58 259.15 127.823 259.15 127.823Z" fill="#0071CE"/>
<path d="M449.841 449.841V421.208C422.163 420.636 308.206 409.755 208.948 279.574L158.364 419.872V217.919C158.364 217.919 120.187 244.833 62.1592 356.118V449.65H449.841V449.841Z" fill="#B1B1B1"/>
</g>
<defs>
<clipPath id="clip0_1_175">
<rect width="512" height="512" fill="white"/>
</clipPath>
</defs>
</svg>
