<svg width="232" height="40" viewBox="0 0 232 40" fill="none" xmlns="http://www.w3.org/2000/svg">
<path d="M45.6042 11.2852H51.4548C53.6124 11.2852 56.8474 11.9454 56.8474 15.8466C56.8474 17.9598 55.5037 19.4382 53.5167 19.8204V19.8678C55.794 20.0984 57.3532 21.7284 57.3532 23.9206C57.3532 28.4094 53.5645 29.0696 51.4548 29.0696H45.6042V11.2852ZM48.9619 18.4684H50.3295C51.745 18.4684 53.4957 18.1367 53.4957 16.3014C53.4957 14.2355 51.7929 14.0839 50.2577 14.0839H48.9619V18.4684ZM48.9619 26.2676H50.545C52.1012 26.2676 53.9985 25.8602 53.9985 23.7943C53.9985 21.4757 52.2239 21.1187 50.545 21.1187H48.9619V26.2676Z" fill="#171923"/>
<path d="M60.5192 17.17C61.7671 16.5793 63.443 16.2129 64.8106 16.2129C68.5753 16.2129 70.1314 17.8081 70.1314 21.5387V23.1592C70.1314 24.4354 70.1583 25.3926 70.1793 26.3213C70.2062 27.2784 70.2511 28.1629 70.3229 29.1453H67.4949C67.3782 28.4851 67.3782 27.648 67.3513 27.2563H67.3034C66.5583 28.6557 64.9542 29.4391 63.4909 29.4391C61.3093 29.4391 59.1755 28.0902 59.1755 25.6863C59.1755 23.7973 60.0643 22.6917 61.2853 22.0789C62.5093 21.4661 64.0894 21.3429 65.433 21.3429H67.2076C67.2076 19.3054 66.3189 18.6199 64.4245 18.6199C63.0599 18.6199 61.6923 19.1601 60.612 19.9972L60.5192 17.17ZM64.2809 27.0352C65.2655 27.0352 66.0316 26.5929 66.5343 25.9043C67.061 25.1935 67.2047 24.2838 67.2047 23.3045H65.8131C64.3767 23.3045 62.2429 23.5509 62.2429 25.4873C62.2459 26.5677 63.1317 27.0352 64.2809 27.0352Z" fill="#171923"/>
<path d="M73.2976 16.5098H76.3441V18.2251H76.3919C77.4004 16.7783 78.7681 16.2129 80.4439 16.2129C83.3677 16.2129 84.6365 18.323 84.6365 21.1692V29.1453H81.4255V22.3979C81.4255 20.8533 81.4015 18.7684 79.3397 18.7684C77.0144 18.7684 76.5116 21.3429 76.5116 22.9634V29.1484H73.2976V16.5098Z" fill="#171923"/>
<path d="M95.778 19.2335C95.2034 18.9619 94.578 18.7692 93.5964 18.7692C91.6063 18.7692 90.3345 20.3865 90.3345 22.7651C90.3345 25.0964 91.4148 26.8874 93.6652 26.8874C94.578 26.8874 95.5835 26.5431 96.1371 26.2999L96.2808 29.0228C95.3471 29.3166 94.3865 29.4398 93.0667 29.4398C89.0148 29.4398 86.9768 26.6189 86.9768 22.7651C86.9768 19.1103 89.0896 16.2168 92.947 16.2168C94.2428 16.2168 95.1765 16.3653 96.0623 16.6338L95.778 19.2335Z" fill="#171923"/>
<path d="M103.84 16.2129C107.509 16.2129 110.313 18.74 110.313 22.9097C110.313 26.5424 107.94 29.4359 103.84 29.4359C99.767 29.4359 97.3909 26.5392 97.3909 22.9097C97.3909 18.74 100.195 16.2129 103.84 16.2129ZM103.84 26.8867C106.309 26.8867 106.958 24.6281 106.958 22.5211C106.958 20.5816 105.95 18.7684 103.84 18.7684C101.754 18.7684 100.746 20.6321 100.746 22.5211C100.746 24.606 101.395 26.8867 103.84 26.8867Z" fill="#171923"/>
<path d="M126.096 14.5453C125.043 14.062 123.866 13.7809 122.69 13.7809C121.541 13.7809 120.054 14.3147 120.054 16.2511C120.054 19.3342 127.392 18.0359 127.392 23.9967C127.392 27.8979 124.489 29.3762 121.107 29.3762C119.285 29.3762 118.471 29.1203 116.816 28.6876L117.127 25.475C118.279 26.1384 119.596 26.5711 120.916 26.5711C122.185 26.5711 123.887 25.8825 123.887 24.2778C123.887 20.8883 116.55 22.2909 116.55 16.4027C116.55 12.4257 119.452 10.9727 122.4 10.9727C123.837 10.9727 125.18 11.1748 126.404 11.6107L126.096 14.5453Z" fill="#171923"/>
<path d="M130.3 17.17C131.548 16.5793 133.224 16.2129 134.591 16.2129C138.356 16.2129 139.915 17.8081 139.915 21.5387V23.1592C139.915 24.4354 139.936 25.3926 139.963 26.3213C139.987 27.2784 140.035 28.1629 140.107 29.1453H137.276C137.156 28.4851 137.156 27.648 137.132 27.2563H137.084C136.342 28.6557 134.735 29.4391 133.272 29.4391C131.09 29.4391 128.956 28.0902 128.956 25.6863C128.956 23.7973 129.845 22.6917 131.066 22.0789C132.287 21.4661 133.87 21.3429 135.214 21.3429H136.988C136.988 19.3054 136.1 18.6199 134.208 18.6199C132.841 18.6199 131.47 19.1601 130.393 19.9972L130.3 17.17ZM134.065 27.0352C135.049 27.0352 135.815 26.5929 136.321 25.9043C136.848 25.1935 136.991 24.2838 136.991 23.3045H135.6C134.16 23.3045 132.027 23.5509 132.027 25.4873C132.027 26.5677 132.915 27.0352 134.065 27.0352Z" fill="#171923"/>
<path d="M143.082 16.5098H146.125V18.2251H146.173C147.182 16.7783 148.546 16.2129 150.225 16.2129C153.149 16.2129 154.421 18.323 154.421 21.1692V29.1453H151.21V22.3979C151.21 20.8533 151.183 18.7684 149.124 18.7684C146.799 18.7684 146.293 21.3429 146.293 22.9634V29.1484H143.082V16.5098Z" fill="#171923"/>
<path d="M158.787 18.9118H156.414V16.5111H158.787V13.9808L162.001 12.9258V16.5111H164.853V18.9118H162.001V24.8031C162.001 25.8834 162.288 26.888 163.509 26.888C164.087 26.888 164.637 26.7679 164.976 26.5437L165.068 29.1466C164.395 29.3424 163.653 29.4403 162.692 29.4403C160.176 29.4403 158.784 27.8483 158.784 25.3433V18.9118H158.787Z" fill="#171923"/>
<path d="M167.609 17.17C168.856 16.5793 170.532 16.2129 171.9 16.2129C175.665 16.2129 177.224 17.8081 177.224 21.5387V23.1592C177.224 24.4354 177.245 25.3926 177.272 26.3213C177.296 27.2784 177.343 28.1629 177.415 29.1453H174.587C174.465 28.4851 174.465 27.648 174.441 27.2563H174.393C173.651 28.6557 172.044 29.4391 170.58 29.4391C168.399 29.4391 166.265 28.0902 166.265 25.6863C166.265 23.7973 167.154 22.6917 168.375 22.0789C169.599 21.4661 171.179 21.3429 172.522 21.3429H174.297C174.297 19.3054 173.411 18.6199 171.514 18.6199C170.149 18.6199 168.782 19.1601 167.701 19.9972L167.609 17.17ZM171.373 27.0352C172.358 27.0352 173.124 26.5929 173.627 25.9043C174.153 25.1935 174.3 24.2838 174.3 23.3045H172.908C171.469 23.3045 169.335 23.5509 169.335 25.4873C169.335 26.5677 170.224 27.0352 171.373 27.0352Z" fill="#171923"/>
<path d="M196.44 28.8541C195.228 29.151 193.926 29.4006 192.666 29.4006C187.303 29.4006 183.578 26.5924 183.578 20.7263C183.578 14.7877 187.043 11.4551 192.666 11.4551C193.758 11.4551 195.207 11.6794 196.416 12.1753L196.179 15.1099C194.923 14.3612 193.782 14.1875 192.597 14.1875C189.18 14.1875 187.043 16.9231 187.043 20.4768C187.043 24.0052 189.132 26.665 192.669 26.665C193.974 26.665 195.518 26.3649 196.302 25.9416L196.44 28.8541Z" fill="#171923"/>
<path d="M198.669 16.304H201.494V19.2102H201.542C201.686 18.0161 202.991 16.0039 204.888 16.0039C205.196 16.0039 205.528 16.0039 205.861 16.105V19.4597C205.576 19.286 205.008 19.1849 204.436 19.1849C201.848 19.1849 201.848 22.5649 201.848 24.4033V29.1006H198.669V16.304Z" fill="#171923"/>
<path d="M219.234 29.1052H216.22V27.3646H216.172C215.2 28.6061 213.823 29.4053 212.162 29.4053C209.265 29.4053 208.009 27.2667 208.009 24.3858V16.3086H211.19V23.1444C211.19 24.7112 211.214 26.8213 213.255 26.8213C215.556 26.8213 216.056 24.2121 216.056 22.5726V16.3086H219.237V29.1052H219.234Z" fill="#171923"/>
<path d="M222.104 16.3047H231.788V19.0371L225.713 26.5205H232V29.1044H221.843V26.3941L228.035 18.8886H222.104V16.3047Z" fill="#171923"/>
<path d="M0 1V25.3106C1.50827 22.4993 6.51487 13.5375 9.13339 13.5375C10.3753 13.5375 12.4462 16.9396 12.4462 16.9396C12.4462 16.9396 22.5941 33.1825 36.3959 33.6501V1H0ZM22.4295 16.9081L18.4194 19.6152L22.4474 15.455L22.4295 16.9081ZM25.9517 15.455L27.3253 15.4645L29.89 19.6973L25.9488 15.4645L24.1981 24.3156V13.6102L22.4414 15.4581L14.0472 13.6102H24.1981L22.4414 11.7528L24.1981 2.89532V13.607L25.9428 11.7591L25.9607 10.2997L29.9738 7.59887L25.9517 11.7528L34.337 13.607H24.1981L25.9517 15.455ZM18.5002 7.50411L22.4444 11.7591L21.0648 11.737L18.5002 7.50411Z" fill="#0071CE"/>
<path d="M36.3958 39.4139V36.5741C33.7892 36.5109 23.1027 35.4337 13.7748 22.5361L9.02857 36.4477V16.4395C9.02857 16.4395 5.44046 19.1024 0.00292969 30.1426V39.4139H36.3958Z" fill="#9E9E9F"/>
</svg>
