<svg viewBox="0 0 150 26" fill="none" xmlns="http://www.w3.org/2000/svg">
<path d="M12.4553 14.3944C12.4553 16.7623 12.4553 19.1368 12.4553 21.5114C12.4553 22.0331 12.4553 22.5548 12.4553 23.0743C12.8518 23.0743 13.2483 23.0743 13.6469 23.0743C13.6469 22.5526 13.6469 22.0309 13.6469 21.5114C13.6469 19.1346 13.6469 16.7623 13.6469 14.3944C15.8267 16.5438 18.0129 18.6887 20.1926 20.8425C19.0984 23.9283 16.2448 25.984 13.0489 25.984C9.85521 25.984 7.00382 23.9283 5.90747 20.8425C8.09151 18.6887 10.2691 16.5438 12.4553 14.3944Z" fill="#0B9042"/>
<path d="M12.3903 12.9896C10.0654 15.246 7.73622 17.5024 5.40702 19.761C3.90765 19.5804 2.40179 19.402 0.900266 19.2214C-0.300089 15.1568 -0.300089 10.8202 0.900266 6.75566C2.40179 6.57506 3.90982 6.39669 5.40702 6.22055C7.73839 8.47692 10.0654 10.7355 12.3903 12.9896Z" fill="#0B9042"/>
<path d="M13.7098 12.9896C16.0369 10.7355 18.3639 8.47469 20.6931 6.22055C22.1947 6.39892 23.6962 6.57506 25.1977 6.75566C26.3959 10.8202 26.3959 15.1568 25.1977 19.2214C23.6962 19.3998 22.1925 19.5804 20.6931 19.761C18.3639 17.5046 16.0369 15.2482 13.7098 12.9896Z" fill="#0B9042"/>
<path d="M5.90955 5.14371C7.0059 2.05347 9.85728 0 13.051 0C16.2447 0 19.1005 2.0557 20.1946 5.14371C18.0149 7.29306 15.8287 9.44017 13.649 11.5895V4.49044C13.9047 4.43692 14.1214 4.20505 14.0867 3.93972C14.3337 3.92189 14.3727 3.69001 14.2514 3.57184C14.0564 3.38232 13.8614 3.19057 13.6642 2.9966C13.5689 2.90072 13.4735 2.80485 13.376 2.70898C13.3197 2.65324 13.2677 2.59527 13.2092 2.54176C13.2005 2.5373 13.1962 2.53284 13.1897 2.52615C13.1788 2.515 13.1637 2.50831 13.1507 2.50385C13.1182 2.48825 13.0878 2.48156 13.051 2.48156C13.0185 2.48156 12.9882 2.48825 12.9535 2.50162C12.9405 2.50831 12.9232 2.51723 12.9123 2.52615C12.9058 2.53284 12.9015 2.5373 12.8972 2.54176C12.8408 2.59527 12.7845 2.65324 12.7282 2.70898C12.6307 2.80262 12.5353 2.90072 12.4357 2.9966C12.2428 3.19057 12.0478 3.38009 11.8528 3.57184C11.7293 3.69224 11.7727 3.92634 12.0218 3.94195C11.9872 4.20282 12.2038 4.43247 12.4552 4.48152V11.5895C10.269 9.44017 8.09142 7.29083 5.90955 5.14371Z" fill="#0B9042"/>
<path d="M32.8246 6.70444H37.0757C38.6444 6.70444 40.9952 7.17266 40.9952 9.92622C40.9952 11.4156 40.0181 12.4613 38.575 12.7311V12.7667C40.2282 12.9295 41.3614 14.0778 41.3614 15.6273C41.3614 18.7934 38.6097 19.2638 37.0757 19.2638H32.8246V6.70444ZM35.2665 11.7813H36.2566C37.2837 11.7813 38.5555 11.5427 38.5555 10.2495C38.5555 8.79135 37.3205 8.68656 36.2046 8.68656H35.2665V11.7813ZM35.2665 17.2817H36.4127C37.5437 17.2817 38.9217 16.9941 38.9217 15.5382C38.9217 13.8972 37.6325 13.6474 36.4127 13.6474H35.2665V17.2817Z" fill="black" fill-opacity="0.8"/>
<path d="M43.6602 10.8604C44.5659 10.4435 45.7858 10.1871 46.7781 10.1871C49.5125 10.1871 50.6479 11.3108 50.6479 13.944V15.0878C50.6479 15.9863 50.6652 16.6641 50.6825 17.3196C50.6977 17.9929 50.7324 18.6195 50.7844 19.3129H48.7282C48.6415 18.8424 48.6415 18.256 48.6263 17.9818H48.5895C48.0521 18.9651 46.8843 19.5202 45.8226 19.5202C44.2387 19.5202 42.6874 18.566 42.6874 16.8714C42.6874 15.5381 43.3309 14.7578 44.2192 14.3275C45.1076 13.8927 46.2581 13.8057 47.231 13.8057H48.5201C48.5201 12.3676 47.8766 11.8838 46.5008 11.8838C45.5084 11.8838 44.5182 12.2651 43.7317 12.8559L43.6602 10.8604ZM46.3968 17.8257C47.1096 17.8257 47.6686 17.5136 48.0326 17.0253C48.4161 16.5259 48.5201 15.8837 48.5201 15.1903H47.5126C46.4639 15.1903 44.9147 15.362 44.9147 16.7288C44.9126 17.4935 45.5604 17.8257 46.3968 17.8257Z" fill="black" fill-opacity="0.8"/>
<path d="M52.9424 10.3944H55.1568V11.6073H55.1936C55.9259 10.5839 56.9183 10.1871 58.1381 10.1871C60.2637 10.1871 61.1867 11.6765 61.1867 13.6831V19.3151H58.851V14.5526C58.851 13.4601 58.8337 11.9864 57.3365 11.9864C55.6464 11.9864 55.2803 13.8057 55.2803 14.9495V19.3151H52.9424V10.3944Z" fill="black" fill-opacity="0.8"/>
<path d="M69.2771 12.3164C68.8611 12.1224 68.4083 11.9842 67.6911 11.9842C66.2481 11.9842 65.3272 13.1257 65.3272 14.8069C65.3272 16.4545 66.1094 17.7165 67.7474 17.7165C68.4104 17.7165 69.1406 17.4757 69.5415 17.2996L69.6433 19.2259C68.9651 19.4333 68.2674 19.518 67.3098 19.518C64.363 19.518 62.8832 17.5292 62.8832 14.8069C62.8832 12.2294 64.415 10.1849 67.2209 10.1849C68.1613 10.1849 68.8416 10.2897 69.4873 10.477L69.2771 12.3164Z" fill="black" fill-opacity="0.8"/>
<path d="M75.1359 10.1871C77.801 10.1871 79.8355 11.9708 79.8355 14.9138C79.8355 17.4801 78.113 19.5225 75.1359 19.5225C72.174 19.5225 70.4493 17.4801 70.4493 14.9138C70.4493 11.9708 72.4882 10.1871 75.1359 10.1871ZM75.1359 17.7187C76.9278 17.7187 77.4001 16.1245 77.4001 14.6351C77.4001 13.2684 76.6678 11.9864 75.1359 11.9864C73.6192 11.9864 72.8869 13.3063 72.8869 14.6351C72.8869 16.1111 73.3614 17.7187 75.1359 17.7187Z" fill="black" fill-opacity="0.8"/>
<path d="M91.1328 9.00762C90.368 8.66426 89.5143 8.47028 88.6606 8.47028C87.8286 8.47028 86.7452 8.84262 86.7452 10.2183C86.7452 12.3899 92.0797 11.4713 92.0797 15.6831C92.0797 18.4366 89.9693 19.4823 87.5101 19.4823C86.1906 19.4823 85.5969 19.2973 84.3965 18.9963L84.6197 16.7288C85.4561 17.197 86.4137 17.5024 87.3736 17.5024C88.2944 17.5024 89.5316 17.0164 89.5316 15.8837C89.5316 13.4914 84.2015 14.4813 84.2015 10.3253C84.2015 7.51601 86.3097 6.49261 88.4526 6.49261C89.4948 6.49261 90.472 6.63531 91.3603 6.943L91.1328 9.00762Z" fill="black" fill-opacity="0.8"/>
<path d="M94.192 10.8604C95.0977 10.4435 96.3154 10.1871 97.3099 10.1871C100.049 10.1871 101.18 11.3108 101.18 13.944V15.0878C101.18 15.9863 101.193 16.6641 101.212 17.3196C101.229 17.9929 101.266 18.6195 101.314 19.3129H99.2599C99.1754 18.8424 99.1754 18.256 99.1581 17.9818H99.1234C98.5839 18.9651 97.4139 19.5202 96.3544 19.5202C94.7662 19.5202 93.2213 18.566 93.2213 16.8714C93.2213 15.5381 93.8627 14.7578 94.7488 14.3275C95.6394 13.8927 96.7877 13.8057 97.7627 13.8057H99.0541C99.0541 12.3676 98.4062 11.8838 97.0347 11.8838C96.0402 11.8838 95.0479 12.2673 94.2635 12.8559L94.192 10.8604ZM96.9264 17.8257C97.6414 17.8257 98.2004 17.5136 98.5644 17.0253C98.9436 16.5259 99.0519 15.8837 99.0519 15.1903H98.0422C96.9957 15.1903 95.4444 15.362 95.4444 16.7288C95.4444 17.4935 96.0922 17.8257 96.9264 17.8257Z" fill="black" fill-opacity="0.8"/>
<path d="M103.476 10.3944H105.689V11.6073H105.723C106.456 10.5839 107.446 10.1871 108.67 10.1871C110.793 10.1871 111.719 11.6765 111.719 13.6831V19.3151H109.383V14.5526C109.383 13.4601 109.363 11.9864 107.866 11.9864C106.176 11.9864 105.81 13.8057 105.81 14.9495V19.3151H103.476V10.3944Z" fill="black" fill-opacity="0.8"/>
<path d="M114.886 12.089H113.161V10.3922H114.886V8.60632L117.222 7.86163V10.3922H119.293V12.089H117.222V16.245C117.222 17.012 117.432 17.7187 118.318 17.7187C118.736 17.7187 119.137 17.634 119.382 17.4779L119.451 19.3129C118.964 19.4511 118.424 19.5203 117.729 19.5203C115.894 19.5203 114.886 18.3965 114.886 16.6262V12.089Z" fill="black" fill-opacity="0.8"/>
<path d="M121.298 10.8604C122.203 10.4435 123.423 10.1871 124.416 10.1871C127.152 10.1871 128.285 11.3108 128.285 13.944V15.0878C128.285 15.9863 128.298 16.6641 128.32 17.3196C128.335 17.9929 128.376 18.6195 128.424 19.3129H126.368C126.281 18.8447 126.281 18.256 126.264 17.9818H126.229C125.69 18.9673 124.524 19.5202 123.46 19.5202C121.874 19.5202 120.323 18.566 120.323 16.8714C120.323 15.5381 120.968 14.7578 121.854 14.3275C122.745 13.8927 123.893 13.8057 124.868 13.8057H126.158C126.158 12.3676 125.514 11.8838 124.138 11.8838C123.146 11.8838 122.153 12.2673 121.369 12.8559L121.298 10.8604ZM124.032 17.8257C124.747 17.8257 125.304 17.5136 125.67 17.0253C126.054 16.5259 126.155 15.8837 126.155 15.1903H125.144C124.097 15.1903 122.55 15.362 122.55 16.7288C122.55 17.4935 123.198 17.8257 124.032 17.8257Z" fill="black" fill-opacity="0.8"/>
<path d="M133.784 6.70444H140.542V8.68656H136.224V11.7813H140.337V13.7589H136.224V19.2638H133.784V6.70444Z" fill="black" fill-opacity="0.8"/>
<path d="M149.333 18.8112C148.481 19.2794 147.506 19.5202 146.25 19.5202C143.292 19.5202 141.567 17.8257 141.567 14.8982C141.567 12.3186 142.945 10.1871 145.73 10.1871C149.06 10.1871 150 12.4546 150 15.5716H143.799C143.905 17.0119 144.917 17.8257 146.36 17.8257C147.489 17.8257 148.466 17.4088 149.335 16.9227V18.8112H149.333ZM147.766 13.9796C147.697 12.8537 147.175 11.8816 145.864 11.8816C144.562 11.8816 143.901 12.7846 143.795 13.9796H147.766Z" fill="black" fill-opacity="0.8"/>
</svg>
