<svg viewBox="0 0 150 26" fill="none" xmlns="http://www.w3.org/2000/svg">
<g id="BSJ">
<g id="Group">
<path id="Vector" d="M13.1509 0.633118V12.5142L11.0939 10.4574L13.1509 0.633118Z" fill="#FFB423"/>
<path id="Vector_2" d="M6.48242 5.74927L11.0995 10.4656L9.48519 10.4483L6.48242 5.74927Z" fill="#FFB423"/>
<path id="Vector_3" d="M25.0334 12.5141H13.1509L15.207 10.4573L25.0334 12.5141Z" fill="#FFB423"/>
<path id="Vector_4" d="M19.9155 5.84732L15.1993 10.4652L15.2158 8.85025L19.9155 5.84732Z" fill="#FFB423"/>
<path id="Vector_5" d="M13.1509 24.3991V12.5142L15.2075 14.5705L13.1509 24.3991Z" fill="#FFB423"/>
<path id="Vector_6" d="M19.8189 19.2786L15.2008 14.5621L16.8153 14.5799L19.8189 19.2786Z" fill="#FFB423"/>
<path id="Vector_7" d="M1.26587 12.5142H13.1509L11.0938 14.5705L1.26587 12.5142Z" fill="#FFB423"/>
<path id="Vector_8" d="M6.38501 19.1826L11.0996 14.5621L11.0822 16.1803L6.38501 19.1826Z" fill="#FFB423"/>
</g>
<path id="Vector_9" d="M30.38 6.32928H34.4777C35.9871 6.32928 38.2541 6.77531 38.2541 9.41347C38.2541 10.8416 37.3142 11.8412 35.9209 12.1004V12.1329C37.5168 12.2881 38.6076 13.3919 38.6076 14.8718C38.6076 17.9066 35.9555 18.3546 34.4777 18.3546H30.3798L30.38 6.32928ZM32.7312 11.187H33.6883C34.6783 11.187 35.9039 10.9628 35.9039 9.72224C35.9039 8.32685 34.7123 8.22319 33.6367 8.22319H32.7312V11.187ZM32.7312 16.4583H33.839C34.9294 16.4583 36.2565 16.1833 36.2565 14.7879C36.2565 13.2199 35.0144 12.979 33.839 12.979H32.7312V16.4583Z" fill="#171923"/>
<path id="Vector_10" d="M40.7888 10.1331C41.638 9.7391 42.7814 9.49359 43.7125 9.49359C46.276 9.49359 47.3376 10.561 47.3376 13.0605V14.1449C47.3376 15.0001 47.3554 15.6424 47.3698 16.2649C47.3872 16.9072 47.4194 17.499 47.4684 18.1565H45.5404C45.4601 17.7118 45.4601 17.1538 45.4438 16.8906H45.4108C44.903 17.8285 43.8104 18.3544 42.8136 18.3544C41.3282 18.3544 39.8734 17.4511 39.8734 15.838C39.8734 14.5732 40.4787 13.8315 41.3107 13.4212C42.1441 13.0107 43.221 12.9282 44.1364 12.9282H45.3447C45.3447 11.5641 44.7407 11.1025 43.4504 11.1025C42.5193 11.1025 41.5884 11.4649 40.8545 12.0247L40.7888 10.1331ZM43.3534 16.7433C44.0231 16.7433 44.5443 16.447 44.8885 15.9863C45.2472 15.51 45.3451 14.9008 45.3451 14.2441H44.3981C43.4186 14.2441 41.9653 14.4089 41.9653 15.7074C41.9651 16.4305 42.5693 16.7433 43.3534 16.7433Z" fill="#171923"/>
<path id="Vector_11" d="M50.0004 9.69439H52.0399V10.872H52.072C52.7473 9.88005 53.6635 9.49359 54.7856 9.49359C56.7439 9.49359 57.5949 10.9399 57.5949 12.8891V18.3541H55.4444V13.7297C55.4444 12.6705 55.4271 11.2429 54.0476 11.2429C52.4896 11.2429 52.153 13.0073 52.153 14.1173V18.3544H50L50.0004 9.69439Z" fill="#171923"/>
<path id="Vector_12" d="M66.0783 11.5156C65.6482 11.333 65.1819 11.2035 64.4456 11.2035C62.9567 11.2035 62.0063 12.2872 62.0063 13.882C62.0063 15.4436 62.8133 16.6436 64.5003 16.6436C65.1824 16.6436 65.9359 16.414 66.3491 16.2498L66.4557 18.0742C65.7571 18.2719 65.039 18.3544 64.0517 18.3544C61.0198 18.3544 59.4937 16.4645 59.4937 13.882C59.4937 11.4325 61.0733 9.49359 63.9607 9.49359C64.9305 9.49359 65.6314 9.59175 66.2941 9.77197L66.0783 11.5156Z" fill="#171923"/>
<path id="Vector_13" d="M71.8278 9.49359C74.5224 9.49359 76.5823 11.1859 76.5823 13.9803C76.5823 16.414 74.8384 18.3544 71.8278 18.3544C68.8341 18.3544 67.0886 16.414 67.0886 13.9803C67.0888 11.1861 69.1508 9.49359 71.8278 9.49359ZM71.8278 16.6436C73.6414 16.6436 74.1171 15.1328 74.1171 13.7187C74.1171 12.4193 73.3775 11.2037 71.8278 11.2037C70.2957 11.2037 69.5552 12.4531 69.5552 13.7187C69.5552 15.1161 70.0315 16.6436 71.8278 16.6436Z" fill="#171923"/>
<path id="Vector_14" d="M87.0659 8.66073C86.3271 8.34507 85.5039 8.1623 84.6808 8.1623C83.8748 8.1623 82.8335 8.51107 82.8335 9.77667C82.8335 11.7918 87.9747 10.9429 87.9747 14.8399C87.9747 17.3881 85.9405 18.3546 83.5713 18.3546C82.2954 18.3546 81.7223 18.1858 80.5641 17.905L80.7836 15.8056C81.5895 16.2392 82.514 16.522 83.4381 16.522C84.3273 16.522 85.5203 16.0709 85.5203 15.0227C85.5203 12.808 80.3798 13.7242 80.3798 9.87665C80.3798 7.27901 82.4118 6.32928 84.4798 6.32928C85.4872 6.32928 86.428 6.46238 87.2847 6.74662L87.0659 8.66073Z" fill="#171923"/>
<path id="Vector_15" d="M90.156 10.1331C91.0068 9.7391 92.1484 9.49359 93.0801 9.49359C95.644 9.49359 96.7064 10.561 96.7064 13.0605V14.1449C96.7064 15.0001 96.7206 15.6424 96.7373 16.2649C96.7536 16.9072 96.7859 17.499 96.8354 18.1565H94.9087C94.8265 17.7118 94.8265 17.1538 94.8106 16.8906H94.7788C94.2715 17.8285 93.1777 18.3544 92.1806 18.3544C90.6948 18.3544 89.2405 17.4511 89.2405 15.838C89.2405 14.5732 89.8459 13.8315 90.6787 13.4212C91.5108 13.0107 92.5895 12.9282 93.5032 12.9282H94.7125C94.7125 11.5641 94.1069 11.1025 92.8185 11.1025C91.8864 11.1025 90.9547 11.4649 90.2207 12.0247L90.156 10.1331ZM92.7208 16.7433C93.3902 16.7433 93.9118 16.447 94.2566 15.9863C94.6157 15.51 94.7134 14.9008 94.7134 14.2441H93.7658C92.7863 14.2441 91.3322 14.4089 91.3322 15.7074C91.3316 16.4305 91.9357 16.7433 92.7208 16.7433Z" fill="#171923"/>
<path id="Vector_16" d="M129.32 10.1337C130.099 9.73933 131.146 9.49359 132 9.49359C134.351 9.49359 135.322 10.5608 135.322 13.0606V14.1454C135.322 15.0008 135.337 15.6419 135.352 16.2659C135.368 16.9073 135.398 17.4996 135.443 18.1569H133.675C133.601 17.7133 133.601 17.1548 133.587 16.8914H133.557C133.092 17.8285 132.09 18.3544 131.176 18.3544C129.813 18.3544 128.481 17.4504 128.481 15.8393C128.481 14.5738 129.036 13.8322 129.799 13.4222C130.561 13.0114 131.549 12.9298 132.388 12.9298H133.495C133.495 11.5646 132.941 11.1041 131.761 11.1041C130.906 11.1041 130.053 11.4656 129.38 12.0256L129.32 10.1337ZM131.67 16.7434C132.285 16.7434 132.762 16.4476 133.078 15.9862C133.407 15.5102 133.496 14.9018 133.496 14.244H132.629C131.73 14.244 130.398 14.409 130.398 15.7076C130.398 16.4294 130.951 16.7434 131.67 16.7434Z" fill="#171923"/>
<path id="Vector_17" d="M98.7348 9.69439H100.944V10.872H100.978C101.709 9.88005 102.701 9.49359 103.919 9.49359C106.04 9.49359 106.962 10.9399 106.962 12.8891V18.3541H104.632V13.7297C104.632 12.6705 104.613 11.2429 103.117 11.2429C101.429 11.2429 101.064 13.0073 101.064 14.1173V18.3544H98.7341V9.69461H98.7348V9.69439Z" fill="#171923"/>
<path id="Vector_18" d="M110.76 16.2042C111.122 16.3169 111.506 16.3969 112.04 16.3969C113.78 16.3969 113.78 15.2256 113.78 14.4238V6.9624H116.456V15.4987C116.456 16.6856 115.538 18.3548 112.805 18.3548C112.078 18.3548 111.506 18.3065 110.76 18.1465V16.2042H110.76Z" fill="#171923"/>
<path id="Vector_19" d="M126.582 18.1522H124.373V16.9753H124.338C123.626 17.8165 122.617 18.3544 121.4 18.3544C119.276 18.3544 118.354 16.9087 118.354 14.9577V9.49359H120.686V14.1174C120.686 15.176 120.703 16.6055 122.199 16.6055C123.887 16.6055 124.251 14.8407 124.251 13.7306V9.49359H126.582V18.1522Z" fill="#171923"/>
<path id="Path" d="M137.975 9.69028H140.134V10.8408H140.168C140.883 9.87004 141.849 9.49359 143.044 9.49359C145.117 9.49359 146.02 10.9063 146.02 12.8097V18.1519H143.74V13.6345C143.74 12.5982 143.721 11.2003 142.259 11.2003C140.61 11.2003 140.252 12.926 140.252 14.011V18.1519H137.975V9.69028Z" fill="#171923"/>
</g>
</svg>
